<?xml version="1.0" encoding="UTF-8" standalone="no"?><!DOCTYPE svg PUBLIC "-//W3C//DTD SVG 1.1//EN" "http://www.w3.org/Graphics/SVG/1.1/DTD/svg11.dtd"><svg width="100%" height="100%" viewBox="0 0 192 192" version="1.1" xmlns="http://www.w3.org/2000/svg" xmlns:xlink="http://www.w3.org/1999/xlink" xml:space="preserve" xmlns:serif="http://www.serif.com/" style="fill-rule:evenodd;clip-rule:evenodd;stroke-miterlimit:1.5;"><g id="traces"><path d="M155.568,104.894l0,-6.871l5.757,-5.757l32.525,-0" style="fill:none;stroke:#000;stroke-width:4px;"/><path d="M50.669,63.351l5.039,-0l19.18,19.18l17.334,-0l3.801,3.8l-0,24.083" style="fill:none;stroke:#000;stroke-width:4px;"/><path d="M161.305,58.348l0,3.201l-3.844,3.845" style="fill:none;stroke:#000;stroke-width:4px;"/><path d="M145.945,160.574l0,-7.051l3.613,-3.612l1.423,-0" style="fill:none;stroke:#000;stroke-width:4px;"/><path d="M90.272,184.334l3.714,-3.713l22.955,-0l9.582,-9.583l11.605,0l5.922,-5.922" style="fill:none;stroke:#000;stroke-width:4px;"/><path d="M163.225,154.814l0,-6.885l-5.775,-5.776" style="fill:none;stroke:#000;stroke-width:4px;"/><path d="M58.325,46.088l3.207,-0l13.474,13.474l46.953,-0" style="fill:none;stroke:#000;stroke-width:4px;"/><path d="M43.9,42.474l3.963,-3.963l17.575,0l11.388,11.388l47.999,0l7.633,7.633" style="fill:none;stroke:#000;stroke-width:4px;"/><path d="M46.797,119.008l12.609,-0l7.849,7.849l-0,24.064" style="fill:none;stroke:#000;stroke-width:4px;"/><path d="M60.716,99.839l-20.465,0l-32.555,32.556" style="fill:none;stroke:#000;stroke-width:4px;"/><path d="M53.023,128.608l-22.171,-0l-3.853,3.853" style="fill:none;stroke:#000;stroke-width:4px;"/><path d="M124.825,104.428l0,18.446l-7.747,7.747" style="fill:none;stroke:#000;stroke-width:4px;"/><path d="M119.065,147.134l0,-10.882l-1.929,-1.929" style="fill:none;stroke:#000;stroke-width:4px;"/><path d="M7.683,103.661l-3.79,3.79l-7.012,-0" style="fill:none;stroke:#000;stroke-width:4px;"/><path d="M49.774,151.683l2.029,1.789l-0,9.741l5.698,5.698l-0,26.407" style="fill:none;stroke:#000;stroke-width:4px;"/><path d="M21.837,172.768l16.474,-0l3.889,3.889l-0,18.862" style="fill:none;stroke:#000;stroke-width:4px;"/><path d="M26.801,182.339l3.942,3.942l0,9.037" style="fill:none;stroke:#000;stroke-width:4px;"/><path d="M21.121,8.427l0,5.04l3.891,3.89l38.399,0l5.764,-5.764l-0,-15.917" style="fill:none;stroke:#000;stroke-width:4px;"/><path d="M-3.119,142.107l54.96,-0l7.731,7.73l-0.001,9.6l9.604,9.596l-0,26.323" style="fill:none;stroke:#000;stroke-width:4px;"/><path d="M145.945,22.334l0,-1.386l5.691,-5.691l-0,-18.738" style="fill:none;stroke:#000;stroke-width:4px;"/><path d="M159.29,-2.255l-0,13.809l5.851,5.851l11.537,-0l5.792,-5.793l-0,-15.093" style="fill:none;stroke:#000;stroke-width:4px;"/><path d="M1.22,61.44l-4.515,0" style="fill:none;stroke:#000;stroke-width:4px;"/><path d="M21.153,66.471l-0,-16.612l-5.803,-5.802l-18.263,-0" style="fill:none;stroke:#000;stroke-width:4px;"/><path d="M34.577,66.471l0,-6.224" style="fill:none;stroke:#000;stroke-width:4px;"/><path d="M30.746,46.813l-0,6.957l1.953,1.966" style="fill:none;stroke:#000;stroke-width:4px;"/><path d="M11.535,64.53l-0,-6.965l-3.824,-3.824l-10.717,-0" style="fill:none;stroke:#000;stroke-width:4px;"/><path d="M195.35,44.057l-16.583,-0l-4.034,4.034l-11.398,0l-5.935,-5.936l-50.001,0l-9.468,-9.468l-64.542,0" style="fill:none;stroke:#000;stroke-width:4px;"/><path d="M194.911,53.741l-10.477,-0l-5.862,5.885" style="fill:none;stroke:#000;stroke-width:4px;"/><path d="M83.301,40.365l8.276,-0" style="fill:none;stroke:#000;stroke-width:4px;"/><path d="M190.832,61.44l3.603,0" style="fill:none;stroke:#000;stroke-width:4px;"/><path d="M190.832,71.04l3.603,0" style="fill:none;stroke:#000;stroke-width:4px;"/><path d="M-3.568,71.04l5.523,0l1.631,1.631" style="fill:none;stroke:#000;stroke-width:4px;"/><path d="M30.721,6.973l0,-11.334" style="fill:none;stroke:#000;stroke-width:4px;"/><path d="M42.241,6.973l0,-11.334" style="fill:none;stroke:#000;stroke-width:4px;"/><path d="M49.921,3.133l0,-7.494" style="fill:none;stroke:#000;stroke-width:4px;"/><path d="M57.601,6.973l0,-11.334" style="fill:none;stroke:#000;stroke-width:4px;"/><path d="M170.905,5.054l0,-9.415" style="fill:none;stroke:#000;stroke-width:4px;"/><path d="M84.505,92.906l0,4.308" style="fill:none;stroke:#000;stroke-width:4px;"/><path d="M84.505,115.948l0,8.146" style="fill:none;stroke:#000;stroke-width:4px;"/><path d="M84.505,129.388l0,8.146" style="fill:none;stroke:#000;stroke-width:4px;"/><path d="M100.592,163.221l15.826,-0" style="fill:none;stroke:#000;stroke-width:4px;"/><path d="M144.025,137.534l0,-6.226" style="fill:none;stroke:#000;stroke-width:4px;"/><path d="M146.672,128.661l6.226,-0" style="fill:none;stroke:#000;stroke-width:4px;"/><path d="M144.025,52.588l0,4.306" style="fill:none;stroke:#000;stroke-width:4px;"/><path d="M87.152,67.204l15.83,-0" style="fill:none;stroke:#000;stroke-width:4px;"/><path d="M6.963,119.008l-10.276,-0" style="fill:none;stroke:#000;stroke-width:4px;"/><path d="M16.543,163.168l-19.856,-0" style="fill:none;stroke:#000;stroke-width:4px;"/><path d="M186.992,163.168l8.97,-0" style="fill:none;stroke:#000;stroke-width:4px;"/><path d="M8.397,155.488l13.906,-0" style="fill:none;stroke:#000;stroke-width:4px;"/><path d="M117.872,80.661l33.106,-0" style="fill:none;stroke:#000;stroke-width:4px;"/><path d="M190.832,142.101l6.282,-0" style="fill:none;stroke:#000;stroke-width:4px;"/><path d="M14.634,32.66l-17.727,-0" style="fill:none;stroke:#000;stroke-width:4px;"/><path d="M195.354,32.66l-7.167,-0l-3.831,-3.831l0,-4.57" style="fill:none;stroke:#000;stroke-width:4px;"/><path d="M177.858,36.501l-12.791,-0.048l-3.793,-3.793l-24.207,-0" style="fill:none;stroke:#000;stroke-width:4px;"/><path d="M5.771,175.415l-0,8.886l1.98,1.98l4.952,0" style="fill:none;stroke:#000;stroke-width:4px;"/><path d="M121.689,15.38l5.107,-0l11.484,-11.484l-0,-7.377" style="fill:none;stroke:#000;stroke-width:4px;"/><path d="M115.929,7.7l6.812,-0l4.032,-4.032l-0,-7.149" style="fill:none;stroke:#000;stroke-width:4px;"/><path d="M101.663,7.7l3.948,-3.948l-0,-7.233" style="fill:none;stroke:#000;stroke-width:4px;"/><path d="M142.019,11.587l-13.453,13.453l-13.183,-0l-7.832,-7.832l-23.202,0l-5.731,-5.73l-0,-14.959" style="fill:none;stroke:#000;stroke-width:4px;"/><path d="M50.669,72.983l5.208,-0l18.942,18.942l0,7.982l-1.693,1.693l0.017,19.44l1.768,1.768l-0.162,36.48l3.869,3.87l-0,32.561" style="fill:none;stroke:#000;stroke-width:4px;"/><path d="M118.314,32.66l-6.908,-0l-7.642,-7.642l-24.906,0l-4.981,-4.98l-4.736,4.736l-53.787,-0l-3.966,-3.967l0.133,-8.54" style="fill:none;stroke:#000;stroke-width:4px;"/><path d="M37.197,155.488l3,-0l3.833,3.833l0,5.707l5.744,5.744l-0,24.546" style="fill:none;stroke:#000;stroke-width:4px;"/><path d="M45.375,92.135l-48.494,0" style="fill:none;stroke:#000;stroke-width:4px;"/><path d="M45.375,82.561l-14.635,0l-5.765,-5.765l-7.571,0l-5.91,5.91l-14.613,0" style="fill:none;stroke:#000;stroke-width:4px;"/><path d="M116.418,188.181l-3.186,-0l-2.018,-2.018l-3.648,0l-1.864,1.864l-0,6.882" style="fill:none;stroke:#000;stroke-width:4px;"/><path d="M115.225,104.428l0,8.743l-13.427,13.427l0,13.612l-15.228,15.228l-0,9.907l7.404,7.404l14.764,0" style="fill:none;stroke:#000;stroke-width:4px;"/><path d="M136.345,104.428l0,6.877l-3.801,3.801l0,39.708" style="fill:none;stroke:#000;stroke-width:4px;"/><path d="M60.716,109.429l-20.465,-0l-22.958,22.957" style="fill:none;stroke:#000;stroke-width:4px;"/><path d="M50.669,53.776l6.907,0l20.982,20.982l23.129,0l3.979,3.978l-0,20.115" style="fill:none;stroke:#000;stroke-width:4px;"/><path d="M165.872,72.981l3.083,-0l9.687,9.687l15.512,0" style="fill:none;stroke:#000;stroke-width:4px;"/><path d="M174.745,102.508l0,1.2l3.924,3.924l15.485,0" style="fill:none;stroke:#000;stroke-width:4px;"/><path d="M145.945,110.188l0,5.032l3.937,3.936l11.272,0l4.038,-4.037l-0,-10.719" style="fill:none;stroke:#000;stroke-width:4px;"/><path d="M168.985,127.934l0,-3.243l5.75,-5.751l19.115,0" style="fill:none;stroke:#000;stroke-width:4px;"/><path d="M180.505,138.988l0,18.323l-10.903,10.903l0,11.356l-10.217,10.217l-0,5.945" style="fill:none;stroke:#000;stroke-width:4px;"/><path d="M184.345,177.388l0,8.704l-1.87,1.87l0,5.134" style="fill:none;stroke:#000;stroke-width:4px;"/><path d="M182.658,164.908l-6.081,6.081l0,13.356l-5.717,5.716l0,5.911" style="fill:none;stroke:#000;stroke-width:4px;"/><path d="M157.465,171.628l0,6.973l-5.726,5.726l-0,11.165" style="fill:none;stroke:#000;stroke-width:4px;"/><path d="M141.378,186.261l-1.35,-0l-1.769,1.769l0,6.742" style="fill:none;stroke:#000;stroke-width:4px;"/><path d="M133.698,178.581l-3.057,-0l-3.76,3.76l-0,12.431" style="fill:none;stroke:#000;stroke-width:4px;"/></g><g id="Vias"><circle cx="17.281" cy="32.66" r="2.647" style="fill:none;stroke:#000;stroke-width:2.5px;stroke-linecap:round;stroke-linejoin:round;"/><circle cx="11.521" cy="9.62" r="2.647" style="fill:none;stroke:#000;stroke-width:2.5px;stroke-linecap:round;stroke-linejoin:round;"/><circle cx="21.121" cy="5.78" r="2.647" style="fill:none;stroke:#000;stroke-width:2.5px;stroke-linecap:round;stroke-linejoin:round;"/><circle cx="30.721" cy="9.62" r="2.647" style="fill:none;stroke:#000;stroke-width:2.5px;stroke-linecap:round;stroke-linejoin:round;"/><circle cx="42.241" cy="9.62" r="2.647" style="fill:none;stroke:#000;stroke-width:2.5px;stroke-linecap:round;stroke-linejoin:round;"/><circle cx="49.921" cy="5.78" r="2.647" style="fill:none;stroke:#000;stroke-width:2.5px;stroke-linecap:round;stroke-linejoin:round;"/><circle cx="57.601" cy="9.62" r="2.647" style="fill:none;stroke:#000;stroke-width:2.5px;stroke-linecap:round;stroke-linejoin:round;"/><circle cx="99.841" cy="9.62" r="2.647" style="fill:none;stroke:#000;stroke-width:2.5px;stroke-linecap:round;stroke-linejoin:round;"/><circle cx="113.281" cy="7.7" r="2.647" style="fill:none;stroke:#000;stroke-width:2.5px;stroke-linecap:round;stroke-linejoin:round;"/><circle cx="119.041" cy="15.38" r="2.647" style="fill:none;stroke:#000;stroke-width:2.5px;stroke-linecap:round;stroke-linejoin:round;"/><circle cx="120.961" cy="32.66" r="2.647" style="fill:none;stroke:#000;stroke-width:2.5px;stroke-linecap:round;stroke-linejoin:round;"/><circle cx="30.746" cy="32.66" r="2.647" style="fill:none;stroke:#000;stroke-width:2.5px;stroke-linecap:round;stroke-linejoin:round;"/><circle cx="30.746" cy="44.166" r="2.647" style="fill:none;stroke:#000;stroke-width:2.5px;stroke-linecap:round;stroke-linejoin:round;"/><circle cx="34.577" cy="57.6" r="2.647" style="fill:none;stroke:#000;stroke-width:2.5px;stroke-linecap:round;stroke-linejoin:round;"/><circle cx="34.577" cy="69.118" r="2.647" style="fill:none;stroke:#000;stroke-width:2.5px;stroke-linecap:round;stroke-linejoin:round;"/><circle cx="21.158" cy="69.118" r="2.647" style="fill:none;stroke:#000;stroke-width:2.5px;stroke-linecap:round;stroke-linejoin:round;"/><circle cx="11.556" cy="67.177" r="2.647" style="fill:none;stroke:#000;stroke-width:2.5px;stroke-linecap:round;stroke-linejoin:round;"/><circle cx="3.867" cy="61.44" r="2.647" style="fill:none;stroke:#000;stroke-width:2.5px;stroke-linecap:round;stroke-linejoin:round;"/><circle cx="5.762" cy="74.894" r="2.647" style="fill:none;stroke:#000;stroke-width:2.5px;stroke-linecap:round;stroke-linejoin:round;"/><circle cx="21.158" cy="84.481" r="2.647" style="fill:none;stroke:#000;stroke-width:2.5px;stroke-linecap:round;stroke-linejoin:round;"/><circle cx="21.158" cy="101.764" r="2.647" style="fill:none;stroke:#000;stroke-width:2.5px;stroke-linecap:round;stroke-linejoin:round;"/><circle cx="9.61" cy="101.734" r="2.647" style="fill:none;stroke:#000;stroke-width:2.5px;stroke-linecap:round;stroke-linejoin:round;"/><circle cx="9.61" cy="119.008" r="2.647" style="fill:none;stroke:#000;stroke-width:2.5px;stroke-linecap:round;stroke-linejoin:round;"/><circle cx="5.733" cy="134.394" r="2.647" style="fill:none;stroke:#000;stroke-width:2.5px;stroke-linecap:round;stroke-linejoin:round;"/><circle cx="15.33" cy="134.381" r="2.647" style="fill:none;stroke:#000;stroke-width:2.5px;stroke-linecap:round;stroke-linejoin:round;"/><circle cx="24.95" cy="134.381" r="2.647" style="fill:none;stroke:#000;stroke-width:2.5px;stroke-linecap:round;stroke-linejoin:round;"/><circle cx="44.15" cy="119.008" r="2.647" style="fill:none;stroke:#000;stroke-width:2.5px;stroke-linecap:round;stroke-linejoin:round;"/><circle cx="55.67" cy="128.608" r="2.647" style="fill:none;stroke:#000;stroke-width:2.5px;stroke-linecap:round;stroke-linejoin:round;"/><circle cx="67.19" cy="153.568" r="2.647" style="fill:none;stroke:#000;stroke-width:2.5px;stroke-linecap:round;stroke-linejoin:round;"/><circle cx="47.99" cy="149.728" r="2.647" style="fill:none;stroke:#000;stroke-width:2.5px;stroke-linecap:round;stroke-linejoin:round;"/><circle cx="34.55" cy="155.488" r="2.647" style="fill:none;stroke:#000;stroke-width:2.5px;stroke-linecap:round;stroke-linejoin:round;"/><circle cx="24.95" cy="155.488" r="2.647" style="fill:none;stroke:#000;stroke-width:2.5px;stroke-linecap:round;stroke-linejoin:round;"/><circle cx="5.75" cy="155.488" r="2.647" style="fill:none;stroke:#000;stroke-width:2.5px;stroke-linecap:round;stroke-linejoin:round;"/><circle cx="19.19" cy="163.168" r="2.647" style="fill:none;stroke:#000;stroke-width:2.5px;stroke-linecap:round;stroke-linejoin:round;"/><circle cx="19.19" cy="172.768" r="2.647" style="fill:none;stroke:#000;stroke-width:2.5px;stroke-linecap:round;stroke-linejoin:round;"/><circle cx="5.75" cy="172.768" r="2.647" style="fill:none;stroke:#000;stroke-width:2.5px;stroke-linecap:round;stroke-linejoin:round;"/><circle cx="15.35" cy="186.208" r="2.647" style="fill:none;stroke:#000;stroke-width:2.5px;stroke-linecap:round;stroke-linejoin:round;"/><circle cx="24.95" cy="180.448" r="2.647" style="fill:none;stroke:#000;stroke-width:2.5px;stroke-linecap:round;stroke-linejoin:round;"/><circle cx="63.363" cy="109.429" r="2.647" style="fill:none;stroke:#000;stroke-width:2.5px;stroke-linecap:round;stroke-linejoin:round;"/><circle cx="63.363" cy="99.839" r="2.647" style="fill:none;stroke:#000;stroke-width:2.5px;stroke-linecap:round;stroke-linejoin:round;"/><circle cx="48.022" cy="92.135" r="2.647" style="fill:none;stroke:#000;stroke-width:2.5px;stroke-linecap:round;stroke-linejoin:round;"/><circle cx="48.022" cy="82.561" r="2.647" style="fill:none;stroke:#000;stroke-width:2.5px;stroke-linecap:round;stroke-linejoin:round;"/><circle cx="48.022" cy="63.351" r="2.647" style="fill:none;stroke:#000;stroke-width:2.5px;stroke-linecap:round;stroke-linejoin:round;"/><circle cx="48.022" cy="72.982" r="2.647" style="fill:none;stroke:#000;stroke-width:2.5px;stroke-linecap:round;stroke-linejoin:round;"/><circle cx="48.022" cy="53.776" r="2.647" style="fill:none;stroke:#000;stroke-width:2.5px;stroke-linecap:round;stroke-linejoin:round;"/><circle cx="42.213" cy="44.161" r="2.647" style="fill:none;stroke:#000;stroke-width:2.5px;stroke-linecap:round;stroke-linejoin:round;"/><circle cx="55.677" cy="46.088" r="2.647" style="fill:none;stroke:#000;stroke-width:2.5px;stroke-linecap:round;stroke-linejoin:round;"/><circle cx="80.655" cy="40.313" r="2.647" style="fill:none;stroke:#000;stroke-width:2.5px;stroke-linecap:round;stroke-linejoin:round;"/><circle cx="94.115" cy="40.299" r="2.647" style="fill:none;stroke:#000;stroke-width:2.5px;stroke-linecap:round;stroke-linejoin:round;"/><circle cx="84.505" cy="67.204" r="2.647" style="fill:none;stroke:#000;stroke-width:2.5px;stroke-linecap:round;stroke-linejoin:round;"/><circle cx="84.505" cy="90.259" r="2.647" style="fill:none;stroke:#000;stroke-width:2.5px;stroke-linecap:round;stroke-linejoin:round;"/><circle cx="84.505" cy="99.861" r="2.647" style="fill:none;stroke:#000;stroke-width:2.5px;stroke-linecap:round;stroke-linejoin:round;"/><circle cx="84.505" cy="113.301" r="2.647" style="fill:none;stroke:#000;stroke-width:2.5px;stroke-linecap:round;stroke-linejoin:round;"/><circle cx="96.025" cy="113.301" r="2.647" style="fill:none;stroke:#000;stroke-width:2.5px;stroke-linecap:round;stroke-linejoin:round;"/><circle cx="115.225" cy="101.781" r="2.647" style="fill:none;stroke:#000;stroke-width:2.5px;stroke-linecap:round;stroke-linejoin:round;"/><circle cx="115.225" cy="90.261" r="2.647" style="fill:none;stroke:#000;stroke-width:2.5px;stroke-linecap:round;stroke-linejoin:round;"/><circle cx="115.225" cy="80.661" r="2.647" style="fill:none;stroke:#000;stroke-width:2.5px;stroke-linecap:round;stroke-linejoin:round;"/><circle cx="153.625" cy="80.661" r="2.647" style="fill:none;stroke:#000;stroke-width:2.5px;stroke-linecap:round;stroke-linejoin:round;"/><circle cx="145.945" cy="92.181" r="2.647" style="fill:none;stroke:#000;stroke-width:2.5px;stroke-linecap:round;stroke-linejoin:round;"/><circle cx="145.945" cy="107.541" r="2.647" style="fill:none;stroke:#000;stroke-width:2.5px;stroke-linecap:round;stroke-linejoin:round;"/><circle cx="136.345" cy="101.781" r="2.647" style="fill:none;stroke:#000;stroke-width:2.5px;stroke-linecap:round;stroke-linejoin:round;"/><circle cx="124.825" cy="101.781" r="2.647" style="fill:none;stroke:#000;stroke-width:2.5px;stroke-linecap:round;stroke-linejoin:round;"/><circle cx="115.225" cy="132.501" r="2.647" style="fill:none;stroke:#000;stroke-width:2.5px;stroke-linecap:round;stroke-linejoin:round;"/><circle cx="119.065" cy="149.781" r="2.647" style="fill:none;stroke:#000;stroke-width:2.5px;stroke-linecap:round;stroke-linejoin:round;"/><circle cx="107.545" cy="149.781" r="2.647" style="fill:none;stroke:#000;stroke-width:2.5px;stroke-linecap:round;stroke-linejoin:round;"/><circle cx="97.945" cy="163.221" r="2.647" style="fill:none;stroke:#000;stroke-width:2.5px;stroke-linecap:round;stroke-linejoin:round;"/><circle cx="119.065" cy="163.221" r="2.647" style="fill:none;stroke:#000;stroke-width:2.5px;stroke-linecap:round;stroke-linejoin:round;"/><circle cx="111.385" cy="172.821" r="2.647" style="fill:none;stroke:#000;stroke-width:2.5px;stroke-linecap:round;stroke-linejoin:round;"/><circle cx="132.505" cy="157.461" r="2.647" style="fill:none;stroke:#000;stroke-width:2.5px;stroke-linecap:round;stroke-linejoin:round;"/><circle cx="144.025" cy="140.181" r="2.647" style="fill:none;stroke:#000;stroke-width:2.5px;stroke-linecap:round;stroke-linejoin:round;"/><circle cx="144.025" cy="128.661" r="2.647" style="fill:none;stroke:#000;stroke-width:2.5px;stroke-linecap:round;stroke-linejoin:round;"/><circle cx="155.545" cy="128.661" r="2.647" style="fill:none;stroke:#000;stroke-width:2.5px;stroke-linecap:round;stroke-linejoin:round;"/><circle cx="155.545" cy="107.541" r="2.647" style="fill:none;stroke:#000;stroke-width:2.5px;stroke-linecap:round;stroke-linejoin:round;"/><circle cx="165.145" cy="101.781" r="2.647" style="fill:none;stroke:#000;stroke-width:2.5px;stroke-linecap:round;stroke-linejoin:round;"/><circle cx="174.745" cy="99.861" r="2.647" style="fill:none;stroke:#000;stroke-width:2.5px;stroke-linecap:round;stroke-linejoin:round;"/><circle cx="163.225" cy="72.981" r="2.647" style="fill:none;stroke:#000;stroke-width:2.5px;stroke-linecap:round;stroke-linejoin:round;"/><circle cx="155.545" cy="67.221" r="2.647" style="fill:none;stroke:#000;stroke-width:2.5px;stroke-linecap:round;stroke-linejoin:round;"/><circle cx="144.025" cy="69.141" r="2.647" style="fill:none;stroke:#000;stroke-width:2.5px;stroke-linecap:round;stroke-linejoin:round;"/><circle cx="134.425" cy="69.141" r="2.647" style="fill:none;stroke:#000;stroke-width:2.5px;stroke-linecap:round;stroke-linejoin:round;"/><circle cx="124.825" cy="69.141" r="2.647" style="fill:none;stroke:#000;stroke-width:2.5px;stroke-linecap:round;stroke-linejoin:round;"/><circle cx="124.825" cy="59.541" r="2.647" style="fill:none;stroke:#000;stroke-width:2.5px;stroke-linecap:round;stroke-linejoin:round;"/><circle cx="134.425" cy="59.541" r="2.647" style="fill:none;stroke:#000;stroke-width:2.5px;stroke-linecap:round;stroke-linejoin:round;"/><circle cx="144.025" cy="59.541" r="2.647" style="fill:none;stroke:#000;stroke-width:2.5px;stroke-linecap:round;stroke-linejoin:round;"/><circle cx="144.025" cy="49.941" r="2.647" style="fill:none;stroke:#000;stroke-width:2.5px;stroke-linecap:round;stroke-linejoin:round;"/><circle cx="161.305" cy="55.701" r="2.647" style="fill:none;stroke:#000;stroke-width:2.5px;stroke-linecap:round;stroke-linejoin:round;"/><circle cx="176.665" cy="61.461" r="2.647" style="fill:none;stroke:#000;stroke-width:2.5px;stroke-linecap:round;stroke-linejoin:round;"/><circle cx="188.185" cy="61.461" r="2.647" style="fill:none;stroke:#000;stroke-width:2.5px;stroke-linecap:round;stroke-linejoin:round;"/><circle cx="188.185" cy="71.061" r="2.647" style="fill:none;stroke:#000;stroke-width:2.5px;stroke-linecap:round;stroke-linejoin:round;"/><circle cx="180.505" cy="36.501" r="2.647" style="fill:none;stroke:#000;stroke-width:2.5px;stroke-linecap:round;stroke-linejoin:round;"/><circle cx="184.345" cy="21.141" r="2.647" style="fill:none;stroke:#000;stroke-width:2.5px;stroke-linecap:round;stroke-linejoin:round;"/><circle cx="170.905" cy="7.701" r="2.647" style="fill:none;stroke:#000;stroke-width:2.5px;stroke-linecap:round;stroke-linejoin:round;"/><circle cx="144.025" cy="9.621" r="2.647" style="fill:none;stroke:#000;stroke-width:2.5px;stroke-linecap:round;stroke-linejoin:round;"/><circle cx="145.945" cy="24.981" r="2.647" style="fill:none;stroke:#000;stroke-width:2.5px;stroke-linecap:round;stroke-linejoin:round;"/><circle cx="134.425" cy="32.661" r="2.647" style="fill:none;stroke:#000;stroke-width:2.5px;stroke-linecap:round;stroke-linejoin:round;"/><circle cx="168.985" cy="130.581" r="2.647" style="fill:none;stroke:#000;stroke-width:2.5px;stroke-linecap:round;stroke-linejoin:round;"/><circle cx="180.505" cy="136.341" r="2.647" style="fill:none;stroke:#000;stroke-width:2.5px;stroke-linecap:round;stroke-linejoin:round;"/><circle cx="184.345" cy="163.221" r="2.647" style="fill:none;stroke:#000;stroke-width:2.5px;stroke-linecap:round;stroke-linejoin:round;"/><circle cx="184.345" cy="174.741" r="2.647" style="fill:none;stroke:#000;stroke-width:2.5px;stroke-linecap:round;stroke-linejoin:round;"/><circle cx="157.465" cy="168.981" r="2.647" style="fill:none;stroke:#000;stroke-width:2.5px;stroke-linecap:round;stroke-linejoin:round;"/><circle cx="136.345" cy="178.581" r="2.647" style="fill:none;stroke:#000;stroke-width:2.5px;stroke-linecap:round;stroke-linejoin:round;"/><circle cx="144.025" cy="186.261" r="2.647" style="fill:none;stroke:#000;stroke-width:2.5px;stroke-linecap:round;stroke-linejoin:round;"/><circle cx="119.065" cy="188.181" r="2.647" style="fill:none;stroke:#000;stroke-width:2.5px;stroke-linecap:round;stroke-linejoin:round;"/><circle cx="88.345" cy="186.261" r="2.647" style="fill:none;stroke:#000;stroke-width:2.5px;stroke-linecap:round;stroke-linejoin:round;"/><circle cx="188.185" cy="142.101" r="2.647" style="fill:none;stroke:#000;stroke-width:2.5px;stroke-linecap:round;stroke-linejoin:round;"/><circle cx="172.825" cy="149.781" r="2.647" style="fill:none;stroke:#000;stroke-width:2.5px;stroke-linecap:round;stroke-linejoin:round;"/><circle cx="163.225" cy="157.461" r="2.647" style="fill:none;stroke:#000;stroke-width:2.5px;stroke-linecap:round;stroke-linejoin:round;"/><circle cx="155.545" cy="140.181" r="2.647" style="fill:none;stroke:#000;stroke-width:2.5px;stroke-linecap:round;stroke-linejoin:round;"/><circle cx="153.625" cy="149.781" r="2.647" style="fill:none;stroke:#000;stroke-width:2.5px;stroke-linecap:round;stroke-linejoin:round;"/><circle cx="145.945" cy="163.221" r="2.647" style="fill:none;stroke:#000;stroke-width:2.5px;stroke-linecap:round;stroke-linejoin:round;"/><circle cx="84.505" cy="126.741" r="2.647" style="fill:none;stroke:#000;stroke-width:2.5px;stroke-linecap:round;stroke-linejoin:round;"/><circle cx="84.505" cy="140.181" r="2.647" style="fill:none;stroke:#000;stroke-width:2.5px;stroke-linecap:round;stroke-linejoin:round;"/><circle cx="105.629" cy="67.204" r="2.647" style="fill:none;stroke:#000;stroke-width:2.5px;stroke-linecap:round;stroke-linejoin:round;"/><circle cx="105.607" cy="101.737" r="2.647" style="fill:none;stroke:#000;stroke-width:2.5px;stroke-linecap:round;stroke-linejoin:round;"/></g></svg>